<?xml version="1.0" standalone="no"?>
<!DOCTYPE svg PUBLIC "-//W3C//DTD SVG 20010904//EN"
 "http://www.w3.org/TR/2001/REC-SVG-20010904/DTD/svg10.dtd">
<svg version="1.0" xmlns="http://www.w3.org/2000/svg"
 width="256.000000pt" height="256.000000pt" viewBox="0 0 256.000000 256.000000"
 preserveAspectRatio="xMidYMid meet">
<metadata>
Created by potrace 1.11, written by Peter Selinger 2001-2013
</metadata>
<g transform="translate(0.000000,256.000000) scale(0.100000,-0.100000)"
fill="#000000" stroke="none">
<path d="M161 2452 c-19 -9 -44 -30 -55 -45 -21 -28 -21 -34 -24 -1110 -2
-1015 -1 -1084 15 -1117 10 -19 32 -44 50 -56 18 -12 31 -23 28 -25 -2 -2 483
-3 1077 -2 991 1 1084 3 1118 18 21 9 43 28 50 41 7 13 16 21 20 19 9 -6 9
-89 8 1110 0 1147 0 1116 -6 1110 -3 -2 -13 7 -24 21 -45 57 16 54 -1150 54
-1002 0 -1075 -1 -1107 -18z"/>
</g>
</svg>
