<?xml version="1.0" encoding="utf-8"?>
<!-- Generator: Adobe Illustrator 24.1.2, SVG Export Plug-In . SVG Version: 6.00 Build 0)  -->
<svg version="1.1" id="Ebene_2_1_" xmlns="http://www.w3.org/2000/svg" xmlns:xlink="http://www.w3.org/1999/xlink" x="0px" y="0px"
	 viewBox="0 0 149 79.4" style="enable-background:new 0 0 149 79.4;" xml:space="preserve">
<style type="text/css">
	.st0{fill:none;stroke:#FFFFFF;stroke-width:2;stroke-miterlimit:10;}
	.st1{fill:none;}
	.st2{fill:#FFFFFF;stroke:#FFFFFF;stroke-miterlimit:10;}
</style>
<path class="st0" d="M92,6.6c0.8,0,1.5,0.7,1.5,1.5v26.8c0,0.7-0.7,1.4-1.5,1.4H61.7c-0.8,0-1.5-0.7-1.5-1.5V8.1
	c0-0.8,0.7-1.5,1.5-1.5"/>
<path class="st0" d="M87.9,27.9H65.4c-0.8,0-1.5-0.7-1.5-1.5V3.9c0-0.8,0.7-1.5,1.5-1.5h22.5c0.8,0,1.5,0.7,1.5,1.5v22.5
	C89.3,27.2,88.7,27.9,87.9,27.9z"/>
<line class="st0" x1="60.7" y1="35.7" x2="64.4" y2="26.9"/>
<line class="st0" x1="92.8" y1="35.7" x2="89.1" y2="26.9"/>
<line class="st0" x1="60.8" y1="7" x2="64.3" y2="2.9"/>
<line class="st0" x1="93.3" y1="7.3" x2="88.9" y2="2.9"/>
<rect x="64.8" y="8.5" class="st1" width="23.6" height="15.4"/>
<path class="st2" d="M76.6,8.2l4.1,4.1v2L77.3,11v11.7h-1.4V11l-3.4,3.4v-2L76.6,8.2z"/>
<path class="st0" d="M52.6,47.1c0.8,0,1.5,0.7,1.5,1.5v26.8c-0.1,0.7-0.7,1.4-1.5,1.4H22.3c-0.8,0-1.5-0.7-1.5-1.5V48.6
	c0-0.8,0.7-1.5,1.5-1.5"/>
<path class="st0" d="M48.4,68.4H25.9c-0.8,0-1.5-0.7-1.5-1.5V44.4c0-0.8,0.7-1.5,1.5-1.5h22.5c0.8,0,1.5,0.7,1.5,1.5v22.5
	C49.9,67.7,49.2,68.4,48.4,68.4z"/>
<line class="st0" x1="21.2" y1="76.2" x2="25" y2="67.4"/>
<line class="st0" x1="53.3" y1="76.2" x2="49.6" y2="67.4"/>
<line class="st0" x1="21.3" y1="47.5" x2="24.9" y2="43.4"/>
<line class="st0" x1="53.8" y1="47.8" x2="49.5" y2="43.4"/>
<rect x="25.4" y="49" class="st1" width="23.6" height="15.4"/>
<path class="st2" d="M29.9,55.9l4.1-4.1h2l-3.4,3.4h11.7v1.4H32.7l3.4,3.4h-2L29.9,55.9z"/>
<path class="st0" d="M92.3,47.1c0.8,0,1.5,0.7,1.5,1.5v26.8c0,0.7-0.7,1.4-1.5,1.4H62c-0.8,0-1.5-0.7-1.5-1.5V48.6
	c0-0.8,0.7-1.5,1.5-1.5"/>
<path class="st0" d="M88.1,68.4H65.6c-0.8,0-1.5-0.7-1.5-1.5V44.4c0-0.8,0.7-1.5,1.5-1.5h22.5c0.8,0,1.5,0.7,1.5,1.5v22.5
	C89.6,67.7,88.9,68.4,88.1,68.4z"/>
<line class="st0" x1="60.9" y1="76.2" x2="64.7" y2="67.4"/>
<line class="st0" x1="93.1" y1="76.2" x2="89.3" y2="67.4"/>
<line class="st0" x1="61" y1="47.5" x2="64.6" y2="43.4"/>
<line class="st0" x1="93.5" y1="47.8" x2="89.2" y2="43.4"/>
<rect x="65.1" y="49" class="st1" width="23.6" height="15.4"/>
<path class="st2" d="M76.9,63.2l-4.1-4.1v-2l3.4,3.4V48.7h1.4v11.7L81,57v2L76.9,63.2z"/>
<path class="st0" d="M132.5,47.1c0.8,0,1.5,0.7,1.5,1.5v26.8c-0.1,0.7-0.7,1.4-1.5,1.4h-30.3c-0.8,0-1.5-0.7-1.5-1.5V48.6
	c0-0.8,0.7-1.5,1.5-1.5"/>
<path class="st0" d="M128.3,68.4h-22.5c-0.8,0-1.5-0.7-1.5-1.5V44.4c0-0.8,0.7-1.5,1.5-1.5h22.5c0.8,0,1.5,0.7,1.5,1.5v22.5
	C129.7,67.7,129.1,68.4,128.3,68.4z"/>
<line class="st0" x1="101.1" y1="76.2" x2="104.8" y2="67.4"/>
<line class="st0" x1="133.2" y1="76.2" x2="129.5" y2="67.4"/>
<line class="st0" x1="101.2" y1="47.5" x2="104.7" y2="43.4"/>
<line class="st0" x1="133.7" y1="47.8" x2="129.3" y2="43.4"/>
<rect x="105.3" y="49" class="st1" width="23.6" height="15.4"/>
<path class="st2" d="M120.2,60h-2l3.4-3.4h-11.7v-1.4h11.7l-3.4-3.4h2l4.1,4.1L120.2,60z"/>
</svg>
