<?xml version="1.0" encoding="utf-8"?>
<!-- Generator: Adobe Illustrator 24.1.2, SVG Export Plug-In . SVG Version: 6.00 Build 0)  -->
<svg version="1.1" id="Ebene_2_1_" xmlns="http://www.w3.org/2000/svg" xmlns:xlink="http://www.w3.org/1999/xlink" x="0px" y="0px"
	 viewBox="0 0 149 79.4" style="enable-background:new 0 0 149 79.4;" xml:space="preserve">
<style type="text/css">
	.st0{fill:none;stroke:#FFFFFF;stroke-width:2;stroke-miterlimit:10;}
	.st1{fill:#FFFFFF;stroke:#FFFFFF;stroke-miterlimit:10;}
</style>
<path class="st0" d="M96.7,28.9c0.8,0,1.5,0.7,1.5,1.5v22.4c-0.1,0.8-0.7,1.4-1.5,1.4H52.3c-0.8,0-1.5-0.7-1.5-1.5V30.4
	c0-0.8,0.7-1.5,1.5-1.5"/>
<path class="st0" d="M90.8,47.1H57.5c-0.8,0-1.5-0.7-1.5-1.5V26.9c0-0.8,0.7-1.5,1.5-1.5h33.3c0.8,0,1.5,0.7,1.5,1.5v18.7
	C92.2,46.4,91.6,47.1,90.8,47.1z"/>
<line class="st0" x1="51.5" y1="53.7" x2="56.8" y2="46.3"/>
<line class="st0" x1="97.2" y1="53.7" x2="91.8" y2="46.3"/>
<line class="st0" x1="51.5" y1="29.3" x2="56.6" y2="25.8"/>
<line class="st0" x1="97.8" y1="29.5" x2="91.7" y2="25.8"/>
<path class="st1" d="M65.4,38.3l2.5,0.5c-0.3,1-0.9,1.8-1.6,2.3s-1.6,0.8-2.6,0.8c-1.4,0-2.5-0.4-3.3-1.3c-0.9-1-1.4-2.3-1.4-4.1
	c0-1.7,0.5-3.1,1.4-4.2c0.8-0.9,1.8-1.3,3-1.3c1.4,0,2.5,0.5,3.3,1.3c0.9,1,1.4,2.5,1.4,4.6v0.3h-6.4c0,0.8,0.2,1.5,0.6,1.9
	s0.9,0.7,1.5,0.7C64.6,39.7,65.1,39.2,65.4,38.3z M65.5,35.5c0-0.8-0.2-1.4-0.6-1.8s-0.8-0.6-1.3-0.6c-0.5,0-1,0.2-1.4,0.6
	c-0.4,0.4-0.6,1-0.6,1.8H65.5z"/>
<path class="st1" d="M69.3,38.6l2.6-0.4c0.2,1.1,0.9,1.6,2.1,1.6c0.6,0,1.1-0.1,1.4-0.3s0.5-0.5,0.5-0.8c0-0.2-0.1-0.4-0.2-0.5
	s-0.4-0.2-0.8-0.3c-2.1-0.5-3.4-1-4-1.4c-0.7-0.6-1.1-1.3-1.1-2.3s0.3-1.7,1-2.3s1.7-0.9,3-0.9s2.2,0.2,2.9,0.6s1.1,1.1,1.4,2.1
	l-2.4,0.5c-0.2-0.8-0.8-1.3-1.8-1.3c-0.6,0-1.1,0.1-1.3,0.2c-0.3,0.2-0.4,0.4-0.4,0.6c0,0.2,0.1,0.4,0.4,0.6c0.2,0.2,1,0.4,2.3,0.7
	c1.4,0.4,2.4,0.8,2.9,1.3s0.8,1.2,0.8,2c0,1-0.4,1.8-1.2,2.5c-0.8,0.7-1.9,1-3.2,1c-1.3,0-2.3-0.3-3.1-0.8
	C70,40.4,69.5,39.6,69.3,38.6z"/>
<path class="st1" d="M89,34.2l-2.5,0.5c-0.2-1.1-0.8-1.6-1.8-1.6c-0.6,0-1.1,0.2-1.5,0.7s-0.6,1.3-0.6,2.4c0,1.2,0.2,2.1,0.6,2.6
	s0.9,0.8,1.6,0.8c0.5,0,0.9-0.1,1.2-0.4c0.3-0.3,0.5-0.8,0.7-1.5l2.5,0.5c-0.5,2.5-2,3.8-4.5,3.8c-1.6,0-2.8-0.5-3.5-1.6
	c-0.8-1.2-1.2-2.5-1.2-4c0-1.8,0.4-3.1,1.3-4.1c0.9-0.9,2-1.4,3.4-1.4c1.1,0,2.1,0.3,2.8,0.8C88.2,32.3,88.7,33.1,89,34.2z"/>
</svg>
