<?xml version="1.0" encoding="utf-8"?>
<!-- Generator: Adobe Illustrator 24.1.2, SVG Export Plug-In . SVG Version: 6.00 Build 0)  -->
<svg version="1.1" id="Ebene_2_1_" xmlns="http://www.w3.org/2000/svg" xmlns:xlink="http://www.w3.org/1999/xlink" x="0px" y="0px"
	 viewBox="0 0 149 82.9" style="enable-background:new 0 0 149 82.9;" xml:space="preserve">
<style type="text/css">
	.st0{fill:none;stroke:#FFFFFF;stroke-width:2;stroke-miterlimit:10;}
	.st1{fill:#FFFFFF;stroke:#FFFFFF;stroke-miterlimit:10;}
	.st2{fill:#FFFFFF;stroke:#FFFFFF;stroke-width:0.5;stroke-miterlimit:10;}
	.st3{fill:#FFFFFF;}
</style>
<path class="st0" d="M126.6,9.5H22.2C21.5,9.5,21,9,21,8.3V6.6c0-0.7,0.5-1.2,1.2-1.2h104.3c0.7,0,1.2,0.5,1.2,1.2v1.6
	C127.8,8.9,127.3,9.5,126.6,9.5z"/>
<path class="st1" d="M96.6,9.5H22.2C21.5,9.5,21,9,21,8.3V6.6c0-0.7,0.5-1.2,1.2-1.2h74.4c0.7,0,1.2,0.5,1.2,1.2v1.6
	C97.8,8.9,97.3,9.5,96.6,9.5z"/>
<circle class="st1" cx="142.3" cy="7.5" r="2.8"/>
<g>
	<path class="st2" d="M138,7.4c0,1.8-0.7,2.7-1.8,2.7c-1,0-1.7-1-1.7-2.7s0.8-2.7,1.8-2.7C137.3,4.8,138,5.7,138,7.4z M135.1,7.5
		c0,1.4,0.4,2.1,1.1,2.1c0.7,0,1.1-0.8,1.1-2.2c0-1.3-0.3-2.1-1.1-2.1C135.6,5.3,135.1,6.1,135.1,7.5z"/>
</g>
<path class="st0" d="M145.6,81.4H3.2c-1.1,0-2-0.8-2-1.8V2.8c0-1,0.9-1.8,2-1.8h142.5c1.1,0,2,0.8,2,1.8v76.8
	C147.7,80.6,146.8,81.4,145.6,81.4z"/>
<polyline class="st0" points="85.1,53.3 85.1,55.2 85.1,74.8 63.7,74.8 63.7,55.2 63.7,53.3 "/>
<g>
	<path class="st3" d="M81.7,47.5l1.5,3.8H65.6l1.5-3.8H81.7 M83.1,45.5H65.7l-3,7.8h2h21.4L83.1,45.5L83.1,45.5z"/>
</g>
</svg>
