<?xml version="1.0" encoding="utf-8"?>
<!-- Generator: Adobe Illustrator 24.1.2, SVG Export Plug-In . SVG Version: 6.00 Build 0)  -->
<svg version="1.1" id="Ebene_2_1_" xmlns="http://www.w3.org/2000/svg" xmlns:xlink="http://www.w3.org/1999/xlink" x="0px" y="0px"
	 viewBox="0 0 149 79.4" style="enable-background:new 0 0 149 79.4;" xml:space="preserve">
<style type="text/css">
	.st0{fill:none;stroke:#FFFFFF;stroke-width:2;stroke-miterlimit:10;}
</style>
<path class="st0" d="M133.7,28.9c0.8,0,1.5,0.7,1.5,1.5v26.8c-0.1,0.7-0.7,1.4-1.5,1.4H15.2c-0.8,0-1.5-0.7-1.5-1.5V30.4
	c0-0.8,0.7-1.5,1.5-1.5"/>
<path class="st0" d="M129.5,50.2H18.8c-0.8,0-1.5-0.7-1.5-1.5V26.2c0-0.8,0.7-1.5,1.5-1.5h110.7c0.8,0,1.5,0.7,1.5,1.5v22.5
	C131,49.5,130.3,50.2,129.5,50.2z"/>
<line class="st0" x1="14.1" y1="57.9" x2="17.9" y2="49.2"/>
<line class="st0" x1="134.4" y1="58" x2="130.7" y2="49.3"/>
<line class="st0" x1="14.2" y1="29.3" x2="17.8" y2="25.2"/>
<line class="st0" x1="134.9" y1="29.6" x2="130.6" y2="25.3"/>
</svg>
