<?xml version="1.0" encoding="utf-8"?>
<!-- Generator: Adobe Illustrator 24.1.2, SVG Export Plug-In . SVG Version: 6.00 Build 0)  -->
<svg version="1.1" id="Ebene_2_1_" xmlns="http://www.w3.org/2000/svg" xmlns:xlink="http://www.w3.org/1999/xlink" x="0px" y="0px"
	 viewBox="0 0 149 79.4" style="enable-background:new 0 0 149 79.4;" xml:space="preserve">
<style type="text/css">
	.st0{fill:none;stroke:#FFFFFF;stroke-width:2;stroke-miterlimit:10;}
	.st1{fill:none;}
	.st2{fill:#FFFFFF;stroke:#FFFFFF;stroke-miterlimit:10;}
</style>
<path class="st0" d="M85.6,6.7c0.8,0,1.5,0.7,1.5,1.5V35c0,0.7-0.7,1.4-1.5,1.4H55.3c-0.8,0-1.5-0.7-1.5-1.5V8.2
	c0-0.8,0.7-1.5,1.5-1.5"/>
<path class="st0" d="M81.3,28H58.8c-0.8,0-1.5-0.7-1.5-1.5V4c0-0.8,0.7-1.5,1.5-1.5h22.5c0.8,0,1.5,0.7,1.5,1.5v22.5
	C82.8,27.3,82.2,28,81.3,28z"/>
<line class="st0" x1="54.3" y1="35.8" x2="58" y2="27"/>
<line class="st0" x1="86.3" y1="35.8" x2="82.6" y2="27"/>
<line class="st0" x1="54.3" y1="7.1" x2="57.8" y2="3"/>
<line class="st0" x1="86.8" y1="7.4" x2="82.4" y2="3"/>
<rect x="58.3" y="8.6" class="st1" width="23.6" height="15.4"/>
<path class="st2" d="M65.3,22.9L62.5,8.6h2.4l1.8,9.8l2.1-9.8h2.8l2.1,10l1.8-10h2.4L75,22.9h-2.5l-2.3-10.7l-2.3,10.7H65.3z"/>
<path class="st0" d="M52.3,47.2c0.8,0,1.5,0.7,1.5,1.5v26.8c-0.1,0.7-0.7,1.4-1.5,1.4H22.1c-0.8,0-1.5-0.7-1.5-1.5V48.7
	c0-0.8,0.7-1.5,1.5-1.5"/>
<path class="st0" d="M48.2,68.5H25.7c-0.8,0-1.5-0.7-1.5-1.5V44.5c0-0.8,0.7-1.5,1.5-1.5h22.5c0.8,0,1.5,0.7,1.5,1.5V67
	C49.7,67.8,49,68.5,48.2,68.5z"/>
<line class="st0" x1="21" y1="76.3" x2="24.8" y2="67.5"/>
<line class="st0" x1="53.1" y1="76.3" x2="49.3" y2="67.5"/>
<line class="st0" x1="21.1" y1="47.6" x2="24.7" y2="43.5"/>
<line class="st0" x1="53.6" y1="47.9" x2="49.3" y2="43.5"/>
<rect x="25.2" y="49.1" class="st1" width="23.6" height="15.4"/>
<path class="st2" d="M42.8,63.4h-2.6l-1-3.2h-4.7l-1,3.2H31l4.6-14.3h2.5L42.8,63.4z M38.5,57.7l-1.6-5.3l-1.6,5.3H38.5z"/>
<path class="st0" d="M92.1,47.2c0.8,0,1.5,0.7,1.5,1.5v26.8c0,0.7-0.7,1.4-1.5,1.4H61.8c-0.8,0-1.5-0.7-1.5-1.5V48.7
	c0-0.8,0.7-1.5,1.5-1.5"/>
<path class="st0" d="M87.8,68.5H65.3c-0.8,0-1.5-0.7-1.5-1.5V44.5c0-0.8,0.7-1.5,1.5-1.5h22.5c0.8,0,1.5,0.7,1.5,1.5V67
	C89.3,67.8,88.7,68.5,87.8,68.5z"/>
<line class="st0" x1="60.7" y1="76.3" x2="64.4" y2="67.5"/>
<line class="st0" x1="92.8" y1="76.3" x2="89.1" y2="67.5"/>
<line class="st0" x1="60.8" y1="47.6" x2="64.3" y2="43.5"/>
<line class="st0" x1="93.3" y1="47.9" x2="88.9" y2="43.5"/>
<rect x="64.8" y="49.1" class="st1" width="23.6" height="15.4"/>
<path class="st2" d="M71.8,58.7l2.3-0.3c0.3,1.8,1.1,2.7,2.6,2.7c0.7,0,1.3-0.2,1.7-0.6s0.6-0.8,0.6-1.4c0-0.3-0.1-0.6-0.2-0.8
	s-0.4-0.4-0.7-0.6s-1-0.4-2.1-0.7c-1-0.3-1.7-0.6-2.2-1s-0.8-0.8-1.1-1.4s-0.4-1.2-0.4-1.9c0-0.8,0.2-1.5,0.5-2.1
	c0.4-0.6,0.8-1.1,1.5-1.4c0.6-0.3,1.4-0.5,2.3-0.5c1.4,0,2.5,0.4,3.2,1.1c0.8,0.7,1.2,1.8,1.2,3.2l-2.4,0.1
	c-0.1-0.8-0.3-1.3-0.7-1.6c-0.3-0.3-0.8-0.5-1.5-0.5c-0.6,0-1.1,0.1-1.5,0.4c-0.3,0.3-0.5,0.6-0.5,1s0.2,0.7,0.5,1s1,0.6,2.2,0.9
	s2.1,0.7,2.6,1.1s0.9,0.9,1.2,1.5c0.3,0.6,0.4,1.3,0.4,2.2c0,1.2-0.4,2.3-1.1,3.1c-0.8,0.8-2,1.3-3.6,1.3
	C73.7,63.7,72.1,62,71.8,58.7z"/>
<path class="st0" d="M132.3,47.2c0.8,0,1.5,0.7,1.5,1.5v26.8c-0.1,0.7-0.7,1.4-1.5,1.4H102c-0.8,0-1.5-0.7-1.5-1.5V48.7
	c0-0.8,0.7-1.5,1.5-1.5"/>
<path class="st0" d="M128.1,68.5h-22.5c-0.8,0-1.5-0.7-1.5-1.5V44.5c0-0.8,0.7-1.5,1.5-1.5h22.5c0.8,0,1.5,0.7,1.5,1.5V67
	C129.4,67.8,128.9,68.5,128.1,68.5z"/>
<line class="st0" x1="100.8" y1="76.3" x2="104.6" y2="67.5"/>
<line class="st0" x1="132.9" y1="76.3" x2="129.3" y2="67.5"/>
<line class="st0" x1="100.9" y1="47.6" x2="104.4" y2="43.5"/>
<line class="st0" x1="133.4" y1="47.9" x2="129.1" y2="43.5"/>
<rect x="105.1" y="49.1" class="st1" width="23.6" height="15.4"/>
<path class="st2" d="M112.1,49.1h4.3c1.1,0,1.9,0.1,2.5,0.4c0.6,0.2,1.1,0.7,1.5,1.2c0.5,0.6,0.8,1.3,1.1,2.3
	c0.3,0.9,0.4,2.1,0.4,3.4c0,1.2-0.1,2.3-0.4,3.2s-0.6,1.6-1.1,2.2c-0.4,0.5-0.9,0.9-1.6,1.2c-0.6,0.3-1.4,0.4-2.3,0.4h-4.4V49.1z
	 M114.4,51.5V61h1.8c0.8,0,1.3-0.1,1.7-0.2c0.3-0.1,0.6-0.4,0.8-0.6c0.2-0.3,0.4-0.7,0.5-1.4c0.1-0.6,0.2-1.4,0.2-2.5
	s-0.1-1.9-0.2-2.5s-0.4-1.1-0.7-1.4c-0.3-0.4-0.7-0.6-1.1-0.7c-0.3-0.1-1-0.1-1.9-0.1L114.4,51.5C114.5,51.6,114.5,51.5,114.4,51.5z
	"/>
</svg>
